<?xml version="1.0" encoding="utf-8"?>
<!-- Generator: Adobe Illustrator 21.0.1, SVG Export Plug-In . SVG Version: 6.00 Build 0)  -->
<svg version="1.1" id="Layer_1" xmlns="http://www.w3.org/2000/svg" xmlns:xlink="http://www.w3.org/1999/xlink" x="0px" y="0px"
	 viewBox="0 0 500 175" style="enable-background:new 0 0 500 175;" xml:space="preserve">
<style type="text/css">
	.st0{fill:#FFFFFF;}
</style>
<g>
	<g>
		<path class="st0" d="M63.4,47.1H40.5v67.6c0,0.4-0.1,0.7-0.1,1.1s0,0.7,0.1,1h0l0,0.1c0.5,5.9,5.4,10.4,11.4,10.4
			c6.3,0,11.5-5.1,11.5-11.5V47.1z"/>
		<path class="st0" d="M52,152.5c24.7,0,39.5-14.4,39.5-38.4V33.7h6.3L80.1,5.1L62.3,33.7h6.3v78.1c0,13-6.1,20.4-16.7,20.4
			c-10.7,0-16.8-7.4-16.8-20.4V62.3H12.4v51.6C12.4,138,27.2,152.5,52,152.5z"/>
	</g>
	<g>
		<path class="st0" d="M169.9,79.5v30.9c0,3.5-0.8,6.6-2.4,9.3c-1.6,2.7-3.9,4.7-6.8,6.1c-3,1.4-6.5,2.1-10.6,2.1
			c-6.1,0-10.9-1.6-14.3-4.7c-3.4-3.1-5.1-7.5-5.1-12.9V79.5h10.1v29.2c0,3.7,0.7,6.4,2.2,8.1c1.5,1.7,3.9,2.6,7.4,2.6
			c3.3,0,5.7-0.9,7.2-2.6c1.5-1.7,2.2-4.5,2.2-8.2V79.5H169.9z"/>
		<path class="st0" d="M226.6,94.4c0,5.1-1.6,9.1-4.8,11.8c-3.2,2.7-7.8,4.1-13.7,4.1h-4.3v17h-10.1V79.5h15.3
			c5.8,0,10.2,1.2,13.2,3.7C225.1,85.7,226.6,89.4,226.6,94.4z M203.8,101.9h3.3c3.1,0,5.4-0.6,7-1.8c1.5-1.2,2.3-3,2.3-5.4
			c0-2.4-0.6-4.1-1.9-5.3c-1.3-1.1-3.3-1.7-6.1-1.7h-4.6V101.9z"/>
		<path class="st0" d="M275.9,114c0,4.3-1.6,7.7-4.7,10.2c-3.1,2.5-7.4,3.7-13,3.7c-5.1,0-9.6-1-13.5-2.9v-9.4c3.2,1.4,6,2.5,8.2,3
			c2.2,0.6,4.3,0.9,6.1,0.9c2.2,0,3.9-0.4,5.1-1.3c1.2-0.9,1.8-2.1,1.8-3.8c0-0.9-0.3-1.8-0.8-2.5c-0.5-0.7-1.3-1.4-2.3-2.1
			c-1-0.7-3.1-1.8-6.2-3.2c-2.9-1.4-5.1-2.7-6.6-4s-2.6-2.7-3.5-4.4s-1.3-3.6-1.3-5.9c0-4.2,1.4-7.6,4.3-10
			c2.9-2.4,6.8-3.6,11.9-3.6c2.5,0,4.9,0.3,7.1,0.9c2.3,0.6,4.6,1.4,7.1,2.5l-3.3,7.9c-2.5-1-4.7-1.8-6.3-2.2
			c-1.7-0.4-3.3-0.6-4.9-0.6c-1.9,0-3.4,0.4-4.4,1.3c-1,0.9-1.5,2.1-1.5,3.5c0,0.9,0.2,1.7,0.6,2.3c0.4,0.7,1.1,1.3,2,1.9
			c0.9,0.6,3,1.7,6.4,3.3c4.5,2.1,7.5,4.3,9.2,6.4C275.1,108.2,275.9,110.9,275.9,114z"/>
		<path class="st0" d="M299.3,127.2V79.5h10.1v47.8H299.3z"/>
		<path class="st0" d="M351.6,100.4h19v24.8c-3.1,1-6,1.7-8.7,2.1c-2.7,0.4-5.5,0.6-8.3,0.6c-7.2,0-12.7-2.1-16.5-6.4
			c-3.8-4.2-5.7-10.3-5.7-18.3c0-7.7,2.2-13.7,6.6-18c4.4-4.3,10.5-6.5,18.4-6.5c4.9,0,9.6,1,14.2,2.9l-3.4,8.1
			c-3.5-1.7-7.1-2.6-10.9-2.6c-4.4,0-7.9,1.5-10.5,4.4c-2.6,2.9-4,6.9-4,11.9c0,5.2,1.1,9.1,3.2,11.9c2.1,2.7,5.2,4.1,9.3,4.1
			c2.1,0,4.3-0.2,6.4-0.7v-10h-9.1V100.4z"/>
		<path class="st0" d="M433.2,127.2h-10.1v-20.6h-18.9v20.6H394V79.5h10.1v18.7h18.9V79.5h10.1V127.2z"/>
		<path class="st0" d="M474.4,127.2h-10.1V87.9h-13v-8.4h36.1v8.4h-13V127.2z"/>
	</g>
</g>
</svg>
